<svg id="レイヤー_1" data-name="レイヤー 1" xmlns="http://www.w3.org/2000/svg" viewBox="0 0 256 256"><defs><style>.cls-1,.cls-2{fill:#274e93;}.cls-2{font-size:83.69px;font-family:OpenSans-Bold, Open Sans;font-weight:700;letter-spacing:0.05em;}</style></defs><title>icon</title><g id="_2" data-name="2"><path class="cls-1" d="M166.12,5v.22c-1,0-5.11-.37-15.44-.22H58.07A30.88,30.88,0,0,0,27.2,35.91V221.13A30.88,30.88,0,0,0,58.07,252H197a30.88,30.88,0,0,0,30.87-30.87V66.78Zm46.3,216.09A15.44,15.44,0,0,1,197,236.57H58.07a15.44,15.44,0,0,1-15.43-15.44V35.91A15.43,15.43,0,0,1,58.07,20.48h92.39c-.14,18.48.22,30.87.22,30.87a30.87,30.87,0,0,0,30.87,30.87h30.87ZM181.55,66.78a15.43,15.43,0,0,1-15.43-15.43V20.48l46.3,46.3Z"/></g><text class="cls-2" transform="translate(84.98 170.48)">W</text></svg>