<svg id="レイヤー_1" data-name="レイヤー 1" xmlns="http://www.w3.org/2000/svg" viewBox="0 0 256 256"><defs><style>.cls-1{fill:#828282;}</style></defs><title>icon</title><g id="_2" data-name="2"><path class="cls-1" d="M174.12,5v.22c-1,0-5.11-.37-15.44-.22H66.07A30.88,30.88,0,0,0,35.2,35.91V221.13A30.88,30.88,0,0,0,66.07,252H205a30.88,30.88,0,0,0,30.87-30.87V66.78Zm46.3,216.09A15.44,15.44,0,0,1,205,236.57H66.07a15.44,15.44,0,0,1-15.43-15.44V35.91A15.43,15.43,0,0,1,66.07,20.48h92.39c-.14,18.48.22,30.87.22,30.87a30.87,30.87,0,0,0,30.87,30.87h30.87ZM189.55,66.78a15.43,15.43,0,0,1-15.43-15.43V20.48l46.3,46.3Z"/></g></svg>